<svg id="Capa_1" data-name="Capa 1" xmlns="http://www.w3.org/2000/svg" viewBox="0 0 467.33 123.88"><defs><style>.cls-1{fill:#a7c0d3;}.cls-2{fill:#021744;}.cls-3{fill:#0a82e5;}</style></defs><path class="cls-1" d="M127.28,42.73l-.17,0-15.69-1.54a.38.38,0,0,1-.31-.21L104.39,30c-.55-.88-1.09-1.76-1.63-2.64l-.14-.2-5.16,5.57L92.32,38.3c-1.72,1.86-3.45,3.7-5.15,5.56l-.88-1.45-2.51-4.09-4.07-6.61c-1.14-1.87-2.29-3.73-3.43-5.59l-.9-1.46a1.77,1.77,0,0,0-.12-.17l-.64.69-6.45,7L64.3,36.32a.45.45,0,0,1-.4.18l-8.08-.8L48.3,35l-.28,0,.17-.22,2.57-2.77,8.14-8.79,6.24-6.73,3.12-3.36,6.87-7.41,2.05-2.23s.09-.12.16-.2l6,9.71q3,4.83,6,9.69L104.71,5.94l.17.25,2.55,4.16q2,3.18,3.91,6.36l6,9.67,4.78,7.79L125.67,40l1.47,2.41a2.54,2.54,0,0,1,.16.28Z"/><path class="cls-1" d="M141.16,67.17q-.72,6.54-1.45,13.1c-.54,4.86-1,9.73-1.68,14.56a30,30,0,0,1-26.35,25.65,42.93,42.93,0,0,1-10.13-.34c-15.06-1.7-30.12-3.35-45.18-5.1-12-1.4-20.38-7.73-25.17-18.78a28.42,28.42,0,0,1-2-14.68C30.14,73.49,31,65.39,32,57.3A30.05,30.05,0,0,1,54.09,32.07,35,35,0,0,1,67,31.44q23.33,2.67,46.65,5.22A30.34,30.34,0,0,1,141,65.6c0,.52,0,1,0,1.55Zm-82,27.52c.07.87.09,1.62.21,2.36a14.17,14.17,0,0,0,12.75,12.08c6.06.73,12.12,1.4,18.19,2.07a14.35,14.35,0,0,0,15.84-12.63c.34-2.88.64-5.76,1-8.64.21-1.75,1.22-2.42,3-2.42a23.83,23.83,0,0,0,5.54-.43,15.69,15.69,0,0,0,12-15.54,16,16,0,0,0-14.53-15.63Q87.6,53,62,50.15a16,16,0,0,0-6,.36c-6.17,1.7-10.23,5.62-11.67,11.85s.51,11.49,5.3,15.68a15.3,15.3,0,0,0,8.11,3.6c2,.29,2.74,1.23,2.53,3.22,0,.34-.07.67-.1,1C59.83,88.84,59.5,91.82,59.19,94.69Z"/><path class="cls-1" d="M26.36,51.93l1.28.07c.4,0,.51.23.44.63C26.27,62.35,25.69,72.22,24.47,82a26.37,26.37,0,0,0-.14,3.56c0,.7-.17.88-.88.78A13,13,0,0,1,12.18,72.19c.27-3.09.63-6.17,1.05-9.24A13.06,13.06,0,0,1,26.36,51.93Z"/><path class="cls-1" d="M142.13,99.64c.56-4.65,1.14-9.16,1.66-13.67q1-8.43,1.86-16.88a24.7,24.7,0,0,0,.09-3.1c0-.67.23-.78.83-.7A13.08,13.08,0,0,1,157.92,79c-.23,3.35-.62,6.7-1.14,10a13.09,13.09,0,0,1-13.64,10.77C142.76,99.74,142.38,99.67,142.13,99.64Z"/><path class="cls-2" d="M59.19,94.69c.31-2.87.64-5.85,1-8.83,0-.33.07-.66.1-1,.21-2-.52-2.93-2.53-3.22A15.3,15.3,0,0,1,49.62,78c-4.79-4.19-6.74-9.47-5.3-15.68S49.82,52.21,56,50.51a16,16,0,0,1,6-.36Q87.59,53,113.19,55.91a16,16,0,0,1,14.53,15.63,15.69,15.69,0,0,1-12,15.54,23.83,23.83,0,0,1-5.54.43c-1.75,0-2.76.67-3,2.42-.34,2.88-.64,5.76-1,8.64A14.35,14.35,0,0,1,90.34,111.2c-6.07-.67-12.13-1.34-18.19-2.07A14.17,14.17,0,0,1,59.4,97.05C59.28,96.31,59.26,95.56,59.19,94.69Zm12-18.16a2.64,2.64,0,0,0,3.06-2.42c.41-3.41.8-6.83,1.15-10.25a2.59,2.59,0,0,0-2.35-3q-5.19-.68-10.4-1.19a2.58,2.58,0,0,0-3,2.41c-.42,3.43-.81,6.88-1.16,10.32a2.59,2.59,0,0,0,2.38,3C64.41,75.8,67.91,76.17,71.21,76.53Zm24.71-.08A2.71,2.71,0,0,0,98.4,79.6c3.44.41,6.88.78,10.33,1.14a2.58,2.58,0,0,0,2.89-2.22c.1-.53.14-1.08.2-1.61q.5-4.32,1-8.63c.18-1.71-.65-3-2.21-3.2q-5.31-.69-10.64-1.22a2.53,2.53,0,0,0-2.86,2.35C96.67,69.67,96.3,73.14,95.92,76.45ZM83.72,97.07a10.5,10.5,0,0,0,10.41-8.49c.11-.58,0-.83-.63-.9q-9.68-1.05-19.33-2.15c-.62-.07-.82.11-.85.73A10.47,10.47,0,0,0,83.72,97.07Z"/><path class="cls-3" d="M71.21,76.53c-3.3-.36-6.8-.73-10.29-1.15a2.59,2.59,0,0,1-2.38-3c.35-3.44.74-6.89,1.16-10.32a2.58,2.58,0,0,1,3-2.41q5.2.51,10.4,1.19a2.59,2.59,0,0,1,2.35,3c-.35,3.42-.74,6.84-1.15,10.25A2.64,2.64,0,0,1,71.21,76.53Z"/><path class="cls-3" d="M95.92,76.45c.38-3.31.75-6.78,1.17-10.24A2.53,2.53,0,0,1,100,63.86q5.33.52,10.64,1.22c1.56.2,2.39,1.49,2.21,3.2q-.48,4.31-1,8.63c-.06.53-.1,1.08-.2,1.61a2.58,2.58,0,0,1-2.89,2.22c-3.45-.36-6.89-.73-10.33-1.14A2.71,2.71,0,0,1,95.92,76.45Z"/><path class="cls-3" d="M83.72,97.07a10.47,10.47,0,0,1-10.4-10.81c0-.62.23-.8.85-.73q9.66,1.11,19.33,2.15c.65.07.74.32.63.9A10.5,10.5,0,0,1,83.72,97.07Z"/><path class="cls-1" d="M164,34.08s10.23.18,22.43-.27c0,0,1.6,14.6,3.91,31.16,1.34-9.35,2.85-21.63,3.92-34,0,0,12,.45,23.23.8,0,0,.09,24.84,2.58,63.65,0,0-8.54.44-16.55.71,0,0,.44-19.58-.54-46.82-1.6,10.06-3.56,24.21-4.54,36.49,0,0-8.27-.08-15.84-.44,0,0-1.16-12-4.36-32.76,0,10.68,0,25.37.35,41,0,0-10.14-.27-16.91-.36C161.64,93.27,163.16,68,164,34.08Z"/><path class="cls-1" d="M221.81,71.91c0-12.46,5.26-22.7,19.05-22.7,15.4,0,19.58,11.57,18.52,26.7,0,0-8.46,0-21.37.18.27,6,1.16,8.1,3,8.1,1.42,0,2.4-1.24,2.58-5.07,0,0,8.28.09,16,.36C258.31,89.62,251.1,95.23,241,95.23,225.91,95.23,221.81,84.82,221.81,71.91ZM238,68.35c1.87,0,3.39,0,5.17-.09.08-6.05-.81-8.81-2.41-8.81C239,59.45,238.19,61.23,238,68.35Z"/><path class="cls-1" d="M282.07,66.3c0-2-.53-2.94-1.87-2.94-1.51,0-1.87,1-2,2.94-.17,6.5-.08,26.62-.08,26.62s-7.13-.09-15.85,0c0,0,.36-16.65.18-41.93,0,0,5.16.18,12.28-.09,0,0-.17,3.56-.09,6.77,2.05-4.72,6.86-8.28,12-8.28,6.94,0,10.59,4.81,10.86,13.17.18,4.81.18,33.29.18,33.29-5.43-.09-15.85.09-15.85.09S282.07,80.37,282.07,66.3Z"/><path class="cls-1" d="M299.52,51.17c1.51.09,2.93.09,4.27.09.09-7.21.18-11.93.18-11.93,11.21.18,15.31,0,15.31,0s-.09,5.16-.18,12.11H326c-.17,11.3-.09,13.35-.09,13.35L319,64.7c0,3.65.09,7.3.18,10.59.09,2.67,1.51,3.92,4.18,3.92a14.79,14.79,0,0,0,2.58-.27c.45,9.35.81,14.24.81,14.24a40.09,40.09,0,0,1-8.64,1.16c-8.63,0-14.24-4-14.33-14.51-.09-5.34-.09-10.24-.09-15.13h-4C299.69,54,299.52,51.17,299.52,51.17Z"/><path class="cls-1" d="M328.09,71.37c0-14,6.68-22.25,19.14-22.25,13.35,0,18.87,9.08,18.87,23,0,16.82-7.21,23-19.14,23C332.72,95.05,328.09,85.53,328.09,71.37Zm21.45.81c0-10.51-.71-12.47-2.4-12.47-1.87,0-2.49,2-2.49,11.84,0,11.84.71,13.35,2.49,13.35C348.65,84.9,349.54,83.39,349.54,72.18Z"/><path class="cls-1" d="M368.77,49.74s2.31.18,13-.08c0,0-.26,3.29-.35,7.83,2.31-5.25,7.74-9,12.82-8.9,0,0-.45,4.27-.63,16-6.67,1.07-8.81,5-9,11.48-.18,7.3.09,18.52.09,18.52s-4-.09-15.75.09C369,94.7,369.12,72,368.77,49.74Z"/><path class="cls-1" d="M394.67,36.48c0-5.52,3.56-8.72,9.61-8.72s9.17,4,9.17,8.9c0,5.16-3,9.26-9.17,9.26C397.87,45.92,394.67,42.53,394.67,36.48Zm1.6,12.82s5.17.09,15.58-.09c0,0-.09,15.84.36,44.95,0,0-6.68,0-15.67.09C396.54,94.25,396.63,82,396.27,49.3Z"/><path class="cls-1" d="M422.35,72.62c-4.8-14-7.74-21.45-7.74-21.45,11.66.44,16.29.09,16.29.09,1.42,6.5,2.58,10.86,3.38,13.88,3.11-11.39,4-15.93,4-15.93,11.74.45,16.19.27,16.19.27C450,61,447.45,68.53,446.38,72c5.61,15.66,8.82,23.59,8.82,23.59-10.77-.36-16.47,0-16.47,0S437.22,90,434.46,80.1c-2,7.74-3.12,13-3.12,13-11.21-.26-17.44.18-17.44.18C418.26,83,421,76.09,422.35,72.62Z"/></svg>