<svg xmlns="http://www.w3.org/2000/svg" viewBox="0 0 512 512"><defs><style>.cls-1{isolation:isolate;}.cls-2{mix-blend-mode:multiply;opacity:0.7;}.cls-3{fill:#021744;}.cls-4{fill:#d8eced;}.cls-5{fill:#3c3c66;}.cls-6{fill:#c2dee5;}.cls-7{fill:#c3e0e7;}.cls-8{fill:#a2c5cb;}.cls-9{fill:#fcfcfc;}.cls-10{fill:#f3b826;}.cls-11{fill:#f5b926;}.cls-12{fill:#25e171;}.cls-13{fill:#fafafb;}.cls-14{fill:#fdfdfd;}.cls-15{fill:#2073ed;}.cls-16{fill:#fa4c4d;}.cls-17{fill:#2b2b49;}</style></defs><g class="cls-1"><g id="Capa_1" data-name="Capa 1"><g class="cls-2"><circle cx="259" cy="259" r="242.34"/></g><circle class="cls-3" cx="256" cy="256" r="242.34"/><path class="cls-4" d="M330.78,427.9c-4.3-1.65-8.64-3.1-12.17-6.33-5-4.58-6.7-10.54-7.6-16.92V340.47l0-40.87L311,276.37l0-11.65c.05-3.86.06-7.72.17-11.58.4-13.5,10.29-23.28,23.76-23.32,21.09-.06,42.18,0,63.28,0,3.7.25,7.42-.4,11.12.59C419,233,424.91,239,427,248.85c.07.29.38.54.58.81V408.78c-1.24,2.51-1.68,5.33-3.27,7.72a27.25,27.25,0,0,1-15.81,11.4ZM416,329V303.41c0-16.62,0-33.23,0-49.85,0-7.17-4.88-12-11.95-12.11-3.07,0-6.14.07-9.2,0-1.68-.07-2.21.55-2.09,2.15a27.92,27.92,0,0,1,0,4.09c-.4,5.8-4.24,10.5-9.83,10.94a163.72,163.72,0,0,1-27.21,0c-4.88-.43-8.49-4.72-9.35-9.53-.44-2.49,1.3-5.93-1-7.26-2-1.14-5.08-.3-7.69-.33h-1.7c-8.41,0-13,4.63-13.07,13.1,0,6.71,0,13.41,0,20.11q0,64.19,0,128.37c0,8.63,4.68,13.24,13.3,13.24h66.45c8.83,0,13.36-4.58,13.37-13.5Z"/><path class="cls-5" d="M398.23,229.84c-21.1,0-42.19-.08-63.28,0-13.47,0-23.36,9.82-23.76,23.32-.11,3.86-.12,7.72-.17,11.58a56.92,56.92,0,0,0-6.41.17,5.75,5.75,0,0,0,.63,11.46c1.91.1,3.83,0,5.75,0L311,299.6l-4.08,0-222.3,0c-.07-1-.21-2-.21-3q0-96.63,0-193.27c0-9.58,4.43-16.09,12.49-18.54a22,22,0,0,1,6.4-.69q138,0,276,0c12.07,0,19,7,19,19.07q0,61.8,0,123.6C398.41,227.8,398.29,228.82,398.23,229.84Zm-185.94-35H143.8c-4.37,0-7,2.18-7.07,5.65s2.72,5.92,7.19,6H279.54a11,11,0,0,0,4.7-.52c2.71-1.22,4-3.33,3.58-6.28a5.27,5.27,0,0,0-5-4.77,32.29,32.29,0,0,0-3.41-.08Zm.24,81.47h66.78c1,0,2.05,0,3.06,0a5.6,5.6,0,0,0,5.51-5.41,5.71,5.71,0,0,0-5.16-6.11,22.45,22.45,0,0,0-3.07-.08H145.06a20.13,20.13,0,0,0-3.39.11,5.94,5.94,0,0,0-4.94,5.72,5.87,5.87,0,0,0,5.27,5.74,26,26,0,0,0,3.06.06ZM206,119.14a4.71,4.71,0,0,0-3,1.16c-7.71,5.79-15.47,11.51-23.08,17.43-3.34,2.6-3.25,6.75.1,9.33q11.19,8.63,22.55,17c3.3,2.44,6.7,2,8.73-.76s1.3-6.23-1.81-8.61c-4.33-3.31-8.7-6.56-13-9.84-3.35-2.53-3.34-2.53,0-5.06,4.54-3.41,9.08-6.81,13.58-10.26a5.54,5.54,0,0,0,2-6.69C211,120.34,209.07,119.1,206,119.14Zm70.89,0c-3,0-5.06,1.22-5.88,3.71a5.88,5.88,0,0,0,2.2,7c4.63,3.46,9.18,7.05,13.91,10.38,2.25,1.59,2.66,2.53.13,4.29-4.56,3.17-8.92,6.63-13.35,10-3.34,2.52-4.18,6-2.17,8.79s5.43,3.2,9,.58q10.94-8.1,21.77-16.35c4.15-3.18,4.08-7.23-.12-10.42-7.13-5.43-14.32-10.79-21.49-16.16C279.52,120,278.24,119,276.84,119.13Zm54.7,75.72c-8.38,0-16.77,0-25.16,0-2.86,0-5.13.82-6.3,3.62-1.77,4.24,1.26,8,6.56,8.05q24.83.06,49.64,0c4.6,0,7.22-2.18,7.25-5.85s-2.48-5.79-7.17-5.81C348.09,194.83,339.82,194.85,331.54,194.85Zm-98.93,23.3c-8.39,0-16.78,0-25.16,0-4,0-6.65,2.25-6.74,5.63s2.64,6,6.79,6q25.16,0,50.32,0c4.25,0,6.86-2.33,6.85-5.88s-2.53-5.73-6.9-5.75C249.38,218.13,241,218.15,232.61,218.15Zm.16,34.92c8.27,0,16.54,0,24.81,0,4.53,0,7.17-2.28,7.09-6s-2.64-5.65-7-5.66H208c-4.54,0-7.29,2.21-7.31,5.77s2.77,5.85,7.24,5.86Q220.36,253.09,232.77,253.07ZM253.1,119.71c-.14-3.46-1.68-5.56-4.66-6.32-2.78-.7-4.88.61-6.24,3a12.64,12.64,0,0,0-1.11,3.2q-5.46,21.79-10.87,43.61c-1,4.11.56,7.14,4.07,8.06s6.16-1,7.24-5.3q4.14-16.52,8.24-33C250.89,128.41,252,123.9,253.1,119.71ZM168.9,241.45c-4.76,0-9.53-.06-14.29,0-3.65.06-6.3,2.58-6.29,5.79s2.67,5.76,6.31,5.79q14.12.09,28.23,0c3.77,0,6.18-2.46,6.17-5.83s-2.34-5.69-6.19-5.75C178.2,241.39,173.55,241.44,168.9,241.45Zm-.35-11.64c4.65,0,9.3.05,13.94,0,3.95,0,6.55-2.46,6.53-5.86,0-3.58-2.37-5.72-6.51-5.74q-13.77-.06-27.54,0c-3.94,0-6.63,2.43-6.64,5.77s2.73,5.78,6.62,5.84C159.49,229.86,164,229.81,168.55,229.81Zm119.69-11.62h0c-2,0-4.09-.08-6.13,0a5.78,5.78,0,0,0-5.79,5.55,5.71,5.71,0,0,0,5.07,5.91,99.6,99.6,0,0,0,13.27,0c3.14-.24,5-2.92,4.83-6a5.48,5.48,0,0,0-5.46-5.41C292.11,218.09,290.17,218.19,288.24,218.19Zm-.34,34.86c2,0,4.09.12,6.13,0a5.57,5.57,0,0,0,5.47-5.79,5.49,5.49,0,0,0-5.48-5.75c-4-.15-7.95-.14-11.93,0a5.86,5.86,0,0,0-5.77,5.6,6,6,0,0,0,5.79,6C284,253.16,286,253.06,287.9,253.05ZM128,253v.05c1,0,2,.06,3.06,0a5.62,5.62,0,0,0,5.56-5.71c.05-3.36-2.16-5.71-5.7-5.87a48,48,0,0,0-6.46,0,5.49,5.49,0,0,0-5.06,5.47,5.61,5.61,0,0,0,4.86,6A27.42,27.42,0,0,0,128,253ZM116.5,276.29a27.52,27.52,0,0,0,3.4,0,5.35,5.35,0,0,0,5.07-5.08,5.43,5.43,0,0,0-4.12-6.21,22.42,22.42,0,0,0-8.79,0,5.42,5.42,0,0,0-4.24,6.12,5.34,5.34,0,0,0,5,5.19A24.43,24.43,0,0,0,116.5,276.29Zm0-81.39v0c-.8,0-1.59,0-2.38,0-4,.11-6.25,2.09-6.33,5.56s2.28,5.89,6.29,6.07a39.5,39.5,0,0,0,5.44-.05,5.74,5.74,0,0,0,5.49-6.16c-.15-3.18-2.33-5.23-5.79-5.41C118.31,194.86,117.4,194.9,116.5,194.9ZM128,218.17c-.91,0-1.81,0-2.72,0-3.49.17-5.69,2.18-5.87,5.34a5.62,5.62,0,0,0,5.39,6.21,32.69,32.69,0,0,0,6.78,0,5.56,5.56,0,0,0,5-6.19c-.19-3-2.3-5.09-5.55-5.31C130.05,218.12,129,218.18,128,218.17Z"/><path class="cls-6" d="M84.66,299.65l222.3,0,4.08,0,0,40.87-34.67,0H206.22c-34.46,0-68.92-.13-103.38.06-11,.06-18.78-8.94-18.24-18.08C85.05,314.89,84.67,307.26,84.66,299.65Z"/><path class="cls-7" d="M311,376.07v28.58q-71.67,0-143.35,0c-5.54,0-7.37-1.81-7.29-7.37,0-3.05-.46-6.14.42-9.15,2.22-7.62,9-12.67,17.28-12.79,5.68-.08,11.35,0,17,0h92.74C295.57,375.61,303.33,374.67,311,376.07Z"/><path class="cls-8" d="M287.84,375.31H195.1q5-15.12,10-30.24c.49-1.49.77-3.05,1.16-4.58h70.11Q282.09,357.9,287.84,375.31Z"/><path class="cls-5" d="M416,329v73.74c0,8.92-4.54,13.5-13.37,13.5H336.13c-8.62,0-13.3-4.61-13.3-13.24q0-64.18,0-128.37c0-6.7,0-13.4,0-20.11.05-8.47,4.66-13.07,13.07-13.1h1.7c2.61,0,5.72-.81,7.69.33,2.31,1.33.57,4.77,1,7.26.86,4.81,4.47,9.1,9.35,9.53a163.72,163.72,0,0,0,27.21,0c5.59-.44,9.43-5.14,9.83-10.94a27.92,27.92,0,0,0,0-4.09c-.12-1.6.41-2.22,2.09-2.15,3.06.11,6.13,0,9.2,0,7.07.11,11.92,4.94,11.95,12.11.06,16.62,0,33.23,0,49.85Zm-46.43,75.66c5.55,0,11.1,0,16.65,0,3.66,0,6.67-2.78,6.61-5.89s-3.11-5.71-6.68-5.71h-33c-4.52,0-6.69,1.89-6.7,5.77s2.26,5.79,6.77,5.83C358.65,404.72,364.08,404.68,369.52,404.68Z"/><path class="cls-9" d="M311,276.37c-1.92,0-3.84.08-5.75,0a5.75,5.75,0,0,1-.63-11.46,56.92,56.92,0,0,1,6.41-.17Z"/><path class="cls-10" d="M212.29,194.87h67.13a32.29,32.29,0,0,1,3.41.08,5.27,5.27,0,0,1,5,4.77c.45,2.95-.87,5.06-3.58,6.28a11,11,0,0,1-4.7.52H143.92c-4.47-.08-7.25-2.4-7.19-6s2.7-5.64,7.07-5.65Z"/><path class="cls-11" d="M212.53,276.34H145.06a26,26,0,0,1-3.06-.06,5.87,5.87,0,0,1-5.27-5.74,5.94,5.94,0,0,1,4.94-5.72,20.13,20.13,0,0,1,3.39-.11H279.65a22.45,22.45,0,0,1,3.07.08,5.71,5.71,0,0,1,5.16,6.11,5.6,5.6,0,0,1-5.51,5.41c-1,.08-2,0-3.06,0Z"/><path class="cls-12" d="M206,119.14c3.12,0,5.08,1.2,6,3.7a5.54,5.54,0,0,1-2,6.69c-4.5,3.45-9,6.85-13.58,10.26-3.38,2.53-3.39,2.53,0,5.06,4.35,3.28,8.72,6.53,13,9.84,3.11,2.38,3.8,5.87,1.81,8.61s-5.43,3.2-8.73.76q-11.35-8.38-22.55-17c-3.35-2.58-3.44-6.73-.1-9.33,7.61-5.92,15.37-11.64,23.08-17.43A4.71,4.71,0,0,1,206,119.14Z"/><path class="cls-12" d="M276.84,119.13c1.4-.15,2.68.83,4,1.78,7.17,5.37,14.36,10.73,21.49,16.16,4.2,3.19,4.27,7.24.12,10.42q-10.82,8.26-21.77,16.35c-3.53,2.62-6.88,2.33-9-.58s-1.17-6.27,2.17-8.79c4.43-3.36,8.79-6.82,13.35-10,2.53-1.76,2.12-2.7-.13-4.29-4.73-3.33-9.28-6.92-13.91-10.38a5.88,5.88,0,0,1-2.2-7C271.78,120.35,273.82,119.12,276.84,119.13Z"/><path class="cls-13" d="M331.54,194.85c8.28,0,16.55,0,24.82,0,4.69,0,7.19,2.09,7.17,5.81s-2.65,5.84-7.25,5.85q-24.81,0-49.64,0c-5.3,0-8.33-3.81-6.56-8.05,1.17-2.8,3.44-3.64,6.3-3.62C314.77,194.88,323.16,194.85,331.54,194.85Z"/><path class="cls-9" d="M232.61,218.15c8.38,0,16.77,0,25.16,0,4.37,0,6.89,2.16,6.9,5.75s-2.6,5.87-6.85,5.88q-25.17,0-50.32,0c-4.15,0-6.88-2.52-6.79-6s2.69-5.61,6.74-5.63C215.83,218.13,224.22,218.15,232.61,218.15Z"/><path class="cls-14" d="M232.77,253.07q-12.42,0-24.82,0c-4.47,0-7.27-2.3-7.24-5.86s2.77-5.77,7.31-5.77h49.63c4.38,0,6.93,2.11,7,5.66s-2.56,6-7.09,6C249.31,253.09,241,253.07,232.77,253.07Z"/><path class="cls-12" d="M253.1,119.71c-1.06,4.19-2.21,8.7-3.33,13.21q-4.12,16.52-8.24,33c-1.08,4.28-3.76,6.2-7.24,5.3s-5.09-3.95-4.07-8.06q5.4-21.81,10.87-43.61a12.64,12.64,0,0,1,1.11-3.2c1.36-2.39,3.46-3.7,6.24-3C251.42,114.15,253,116.25,253.1,119.71Z"/><path class="cls-15" d="M168.9,241.45c4.65,0,9.3-.06,13.94,0,3.85.06,6.17,2.28,6.19,5.75s-2.4,5.8-6.17,5.83q-14.12.12-28.23,0c-3.64,0-6.31-2.59-6.31-5.79s2.64-5.73,6.29-5.79C159.37,241.39,164.14,241.45,168.9,241.45Z"/><path class="cls-15" d="M168.55,229.81c-4.53,0-9.06.05-13.6,0-3.89-.06-6.63-2.54-6.62-5.84s2.7-5.75,6.64-5.77q13.77-.06,27.54,0c4.14,0,6.5,2.16,6.51,5.74,0,3.4-2.58,5.81-6.53,5.86C177.85,229.86,173.2,229.81,168.55,229.81Z"/><path class="cls-16" d="M288.24,218.19c1.93,0,3.87-.1,5.79,0a5.48,5.48,0,0,1,5.46,5.41c.15,3.08-1.69,5.76-4.83,6a99.6,99.6,0,0,1-13.27,0,5.71,5.71,0,0,1-5.07-5.91,5.78,5.78,0,0,1,5.79-5.55c2-.1,4.09,0,6.13,0Z"/><path class="cls-16" d="M287.9,253.06c-1.93,0-3.87.1-5.79,0a6,6,0,0,1-5.79-6,5.86,5.86,0,0,1,5.77-5.6c4-.13,8-.14,11.93,0a5.49,5.49,0,0,1,5.48,5.75A5.57,5.57,0,0,1,294,253C292,253.17,289.94,253.05,287.9,253.06Z"/><path class="cls-16" d="M128,253a27.42,27.42,0,0,1-3.74,0,5.61,5.61,0,0,1-4.86-6,5.49,5.49,0,0,1,5.06-5.47,48,48,0,0,1,6.46,0c3.54.16,5.75,2.51,5.7,5.87a5.62,5.62,0,0,1-5.56,5.71c-1,.07-2,0-3.06,0Z"/><path class="cls-16" d="M116.5,276.29a24.43,24.43,0,0,1-3.73,0,5.34,5.34,0,0,1-5-5.19,5.42,5.42,0,0,1,4.24-6.12,22.42,22.42,0,0,1,8.79,0,5.43,5.43,0,0,1,4.12,6.21,5.35,5.35,0,0,1-5.07,5.08A27.52,27.52,0,0,1,116.5,276.29Z"/><path class="cls-16" d="M116.5,194.9c.9,0,1.81,0,2.72,0,3.46.18,5.64,2.23,5.79,5.41a5.74,5.74,0,0,1-5.49,6.16,39.5,39.5,0,0,1-5.44.05c-4-.18-6.36-2.48-6.29-6.07s2.32-5.45,6.33-5.56c.79,0,1.58,0,2.38,0Z"/><path class="cls-16" d="M128,218.18c1,0,2-.06,3.06,0,3.25.22,5.36,2.27,5.55,5.31a5.56,5.56,0,0,1-5,6.19,32.69,32.69,0,0,1-6.78,0,5.62,5.62,0,0,1-5.39-6.21c.18-3.16,2.38-5.17,5.87-5.34C126.2,218.14,127.1,218.17,128,218.18Z"/><path class="cls-17" d="M369.52,404.68c-5.44,0-10.87,0-16.31,0-4.51,0-6.78-2.05-6.77-5.83s2.18-5.76,6.7-5.77h33c3.57,0,6.62,2.63,6.68,5.71s-2.95,5.85-6.61,5.89C380.62,404.72,375.07,404.68,369.52,404.68Z"/></g></g></svg>