<svg xmlns="http://www.w3.org/2000/svg" viewBox="0 0 512 512"><defs><style>.cls-1{isolation:isolate;}.cls-2{mix-blend-mode:multiply;opacity:0.7;}.cls-3{fill:#021744;}.cls-4{fill:#e5e6e7;}.cls-5{fill:#2c2f38;}.cls-6{fill:#efc319;}.cls-7{fill:#e54c3c;}.cls-8{fill:#bf3a2b;}.cls-9{fill:#bcc2c6;}.cls-10{fill:#4482c2;}.cls-11{fill:#7f5333;}.cls-12{fill:#fcd6ac;}.cls-13{fill:#f2d45b;}.cls-14{fill:#94a4a4;}.cls-15{fill:#e47e25;}.cls-16{fill:#b09046;}.cls-17{fill:#b08f46;}.cls-18{fill:#603e26;}</style></defs><g class="cls-1"><g id="Capa_1" data-name="Capa 1"><g class="cls-2"><circle cx="259" cy="259" r="242.34"/></g><circle class="cls-3" cx="256" cy="256" r="242.34"/><path class="cls-4" d="M74.23,384.76V372.7a36.37,36.37,0,0,1,7.47-20.54C91.85,339,105.19,332.6,122,333.89c.82.07,1.65.11,2.47.19a9.24,9.24,0,0,1,2.45.3c2.27.62,2.78-.51,3-2.55,3.32-28.45,18.85-47.3,45.34-57.49a63.66,63.66,0,0,1,24.9-3.42,68.78,68.78,0,0,1,28.69,8.5c6.3,4,6.41,4,9.67-2.84,2.85-6,7.26-11,10.61-16.67,3.5-2.23,6-5.6,9.27-8.12,2.42-1.88,4.82-3.75,7.4-5.41,3.4-2.18,7.19-3.84,9.69-7.24,2.05.71,3.9,0,5.8-.72a74.89,74.89,0,0,1,33.88-4.81,34.32,34.32,0,0,0,4.2-.26,43.3,43.3,0,0,0,7.09,2.06A69,69,0,0,1,352,246.17c15.64,10,26.05,24,32.23,41.31.95,2.65,1.69,5.38,2.75,8,1.82,11.9,2.2,23.77-.45,35.59-.66,2.95,1.17,2.79,3.07,2.62A43.69,43.69,0,0,1,422.48,344c9.76,8.13,15,18.56,15.27,31.44.18,9.71-.56,19.09-6.31,27.45-5.95,8.66-13.66,15-23.63,18.39-3.73,1.28-7.68,1.35-11.55,1.36-93.62,0-187.23-.08-280.84.13-20.72,0-35.31-16.15-39.67-28.67C74.7,391.09,75,387.83,74.23,384.76Z"/><path class="cls-5" d="M169.38,100.27c.4-11,.85-22,1.18-33,.12-4.08,2.9-6,5.8-8h4.26c3.18,1.52,5.15,4.09,6.77,7.17,4.54,8.61,9.29,17.1,14,25.63a3.42,3.42,0,0,1-1,3.24c-7.34,8.27-19.22,10.58-29.2,6.7A4.5,4.5,0,0,1,169.38,100.27Z"/><path class="cls-6" d="M157.77,234.47l4.89,11.89c-.8,1.69-2.49,2.09-4,2.68-7.38,2.86-14.59,6.13-21.92,9.08a14.91,14.91,0,0,0-2.86,1.41,5.06,5.06,0,0,0-2.11,6.21c.84,2.54,3,3.14,5.43,2.85a16.28,16.28,0,0,0,4.39-1.33l20.93-8.72c1.5-.62,3-1.61,4.71-.82l7.62,17.79c-15.23,5.87-27.41,15.4-35.58,29.7a63.16,63.16,0,0,0-8.35,26.73c-.37,4.66-.29,4.66-4.73,3.39-.46-.13-.92-.2-1.38-.3q-13-31.57-26-63.14-11.49-27.79-23-55.57c-2.27-5.46-1.06-8.24,4.48-10.54l48.06-19.91c6.18-2.56,8.85-1.47,11.32,4.61,1.24,3.06,2.44,6.14,3.65,9.21-.35,2.2-2.31,2.51-3.88,3.15-7.11,2.88-14.17,5.86-21.25,8.82a16.34,16.34,0,0,0-3.78,1.9,4.88,4.88,0,0,0-1.63,6c.85,2.33,2.78,3.08,5.11,2.88a17.79,17.79,0,0,0,5.36-1.77c6.61-2.84,13.29-5.52,19.92-8.32,1.57-.66,3.15-1.82,5-.79l4.82,11.48c-.47,1.61-2,1.9-3.22,2.46-4.06,1.86-8.27,3.36-12.34,5.2-3.64,1.65-5.1,4.35-3.86,7.13s4.13,3.84,7.81,2.37c4.25-1.7,8.47-3.48,12.74-5.14C155.25,234.61,156.41,233.88,157.77,234.47Z"/><path class="cls-7" d="M217.42,122.42q5.72,24.77,11.45,49.52,10,43,20.06,85.95c.16.69.4,1.36.6,2a4.69,4.69,0,0,1-1.22,3.51,71.65,71.65,0,0,0-11.48,19.21c-.88,2.16-1.62,2.46-3.39,1a54.23,54.23,0,0,0-4.6-3.16,11.23,11.23,0,0,1-2.6-5.32q-14.67-62.92-29.65-125.76a8.49,8.49,0,0,1-.33-3.84c.62-1.81,2.28-2.3,3.79-2.9,7.19-2.85,11.5-8.28,14.13-15.37C214.84,125.47,214.58,122.85,217.42,122.42Z"/><path class="cls-8" d="M196.92,145q4.52,19,9,38.05,11.15,47.49,22.26,95c.19.8.42,1.59.64,2.38a81.23,81.23,0,0,0-28.2-8.52q-6.25-26.94-12.51-53.87-9.72-41.5-19.5-83a12.75,12.75,0,0,1-.18-1.4c.11-1.32.91-.77,1.42-.44a28.16,28.16,0,0,1,3.59,3.4c5.37,5.13,11.58,8,19.17,7.41C194.13,143.92,195.73,143.67,196.92,145Z"/><path class="cls-7" d="M351.6,247.14l18.59-45.6c1.61.1,2,1.42,2.54,2.57a30.26,30.26,0,0,0,17.1,16.19c8.32,3,16.57,3.46,24.73-.59.71-.35,1.53-.71,2.31-.06q-9.39,22.88-18.8,45.76-6,14.54-11.88,29.11c-2,.13-1.41-1.65-1.67-2.53C379,273,368.11,258,351.6,247.14Z"/><path class="cls-9" d="M258.44,328.78c11.51-.32,20.76,4.47,28.26,12.88,1.52,1.7,2.63,2,4.78,1.22,14.69-5.6,31.66,1.38,38.47,15.68,1.65,3.45.74,7.08-2.15,8.6-3.17,1.66-6.77.62-8.77-2.83a21.18,21.18,0,0,0-8.6-8.64c-6.83-3.5-13.43-2.9-19.65,1.57-4.26,3.06-7.82,2.35-10.15-2.26-5.42-10.72-15.91-15-24.57-14-12.37,1.5-20.52,9.28-22.71,20.92a22.63,22.63,0,0,0,1.08,12.2,12.24,12.24,0,0,1,.85,4.84,5.48,5.48,0,0,1-3.44,5.3,5.73,5.73,0,0,1-6.53-1.26,10.83,10.83,0,0,1-2.79-4.86,37.63,37.63,0,0,1,30.26-49.33A38.15,38.15,0,0,1,258.44,328.78Z"/><path class="cls-10" d="M275.06,239.21c-.15-14.85-.6-29.72,1.39-44.51,1.28-1.24,2.83-1,4.33-.71a193.84,193.84,0,0,0,35.78,2.18,27.82,27.82,0,0,1,3.16.12c2.48.24,3.65,1.43,2.91,4-.27,11.15-2,22.15-3.14,33.22-.53,1.53-1.66,1.63-3.08,1.47a73.57,73.57,0,0,0-38,5.86C276.23,241.78,275.48,241.21,275.06,239.21Z"/><path class="cls-9" d="M262.1,284.37a33.28,33.28,0,0,1,7.74-16.62c7.64-9.08,17.36-14.35,29.55-14.21,3.59,0,6.53,2.68,6.62,5.92.08,3.08-2.52,5.78-6.12,6.14-7.41.72-14,3.24-19.14,8.78A29.54,29.54,0,0,0,274.33,286c-1.22,3.87-4.33,5.45-7.94,4.38C263.49,289.57,262.36,287.41,262.1,284.37Z"/><path class="cls-9" d="M155.8,324.64c.4-8.54,5.67-16.05,13.42-22.09a25.25,25.25,0,0,1,8.65-4.72c4.11-1.15,7.45.09,8.71,3.24s-.15,6.5-4.08,8.25c-8.19,3.63-13.31,9.44-14.3,18.59-.37,3.37-1.68,6.21-5.73,6.5C157.8,334.74,155.77,332.28,155.8,324.64Z"/><path class="cls-11" d="M280.05,164.13a51,51,0,0,1-6.13-7.75c-8.25-13.16-7.4-26.74,2.61-38.59,6-7.12,12.34-14,17.48-21.81,5.63-8.6,10-17.63,9.95-28.25a3.24,3.24,0,0,1,1.77-3.2,2.83,2.83,0,0,1,3.54.73c17.05,17.4,30.11,36.74,29.49,62.44-.33,13.32-5.53,24.94-13.36,35.5-.78,1.05-1.57,2.08-2.35,3.11-1.49,1.55-3.47,1.43-5.31,1.31-11.5-.73-23-1.11-34.52-2.16A4.32,4.32,0,0,1,280.05,164.13Z"/><path class="cls-12" d="M196.92,145c-9.1,1.19-17.25-.64-24-7.25-1.43-1.4-2.35-3.4-4.44-4.1-1.37-2.15.25-4.25.14-6.42-.48-9,.72-18,.79-27,11,4.28,21,3,29.87-5.16.92-.85,2.14-1.57,2.09-3.1q7.71,14.24,15.42,28.48c.34.62.83,1.15.66,1.93a2.7,2.7,0,0,0-1.24,2C213.53,134.85,207.33,141.91,196.92,145Z"/><path class="cls-13" d="M389.23,220.94c-8.32-2.76-13.86-8.5-17.43-16.33-.48-1.05-.56-2.31-1.61-3.07,3.42-8.9,6.47-17.9,7.93-27.37.34-2.2,1.13-4.44,1-6.6-.33-4,1.88-5.89,4.92-7.72,10.5-6.3,20.9-12.78,31.34-19.19,1.58,1.88.24,3.6-.44,5.23-3.19,7.71-6.19,15.52-9.68,23.1-2,4.27-2.5,8,1.28,11.44a5.94,5.94,0,0,1-.65,3.75q-6.81,16.23-13.48,32.53C391.72,218.31,391.54,220.49,389.23,220.94Z"/><path class="cls-6" d="M389.23,220.94l16.89-40.34c5.46-.45,7.49-4.27,9.22-8.81,2.91-7.61,6.15-15.09,9.3-22.6.67-1.59,1.11-3.42,2.92-4.26q4.56,19.41,9.1,38.8a4.92,4.92,0,0,1-.8,4.67c-8.09,9.35-14,20-19,31.25C407.89,225,398.66,225.28,389.23,220.94Z"/><path class="cls-14" d="M280.05,164.13q19.56,1.13,39.12,2.22c1.29.07,2.59,0,3.88,0q0,15.81,0,31.61a13.13,13.13,0,0,1-.43,2.37c0-2-.75-2.85-3-2.82-9.06.16-18.14.39-27.17-.68-5.35-.63-10.69-1.39-16-2.09.39-8.76,1.9-17.39,3.05-26C279.7,167.14,279.87,165.64,280.05,164.13Z"/><path class="cls-15" d="M427.56,144.93c-4.29,10.42-8.53,20.85-12.89,31.23-1.84,4.38-4.36,5.56-8.55,4.44-4.1-2.61-4.81-4.63-3-9.11,3.75-9.17,7.57-18.3,11.35-27.46.44-1.08,1.09-2.12.85-3.37,2.74-1.82,5.49-3.6,8.2-5.45,1.17-.8,1.92-.67,2.22.76C426.38,139,427,141.94,427.56,144.93Z"/><path class="cls-16" d="M148.12,211.58q-13.71,5.65-27.42,11.31c-4.31,1.76-8,.65-9.29-2.75-1.54-3.93,0-6.84,4.57-8.84,9-4,18.42-7.16,27.26-11.61A62.85,62.85,0,0,1,148.12,211.58Z"/><path class="cls-17" d="M167.22,257.72q-13.18,5.52-26.39,11a18.38,18.38,0,0,1-2.66,1c-3.41.81-6.67-.62-7.72-3.32a6.47,6.47,0,0,1,3.77-8.45c7.47-3.18,15-6.24,22.51-9.32,2-.8,4-1.52,5.93-2.27A66.88,66.88,0,0,1,167.22,257.72Z"/><path class="cls-16" d="M157.77,234.47c-5.65,2.38-11.25,4.87-17,7.11-3.79,1.48-7.11,0-8.44-3.38s.07-6.53,3.93-8.18c5.53-2.37,11.09-4.64,16.64-7A81.14,81.14,0,0,1,157.77,234.47Z"/><path class="cls-18" d="M324.58,120.82c-.71,9.13-2.43,18-7.85,25.65-1.73,2.45-3.55,5.31-7.24,4.73-4.85-.77-6.86-5.48-4.2-10,2.77-4.7,5.23-9.45,6.09-14.94a29.69,29.69,0,0,0,0-10.51c-.86-4.37.88-7.63,4.45-8.25,4.13-.72,7.3,1.62,7.95,6C324.16,115.91,324.32,118.37,324.58,120.82Z"/></g></g></svg>